<svg xmlns="http://www.w3.org/2000/svg" width="199.475" height="96" viewBox="0 0 199.475 96"><defs><style>.a{fill:#fff;}</style></defs><g transform="translate(-4049 363.5)"><g transform="translate(0.475)"><g transform="translate(4152.478 -308.011) rotate(180)"><path class="a" d="M37.507,47.341l-1.264,1.264q.281.281,4.074,3.933t4.706,4.636q.913.983,3.723,4.355a27.429,27.429,0,0,1,3.723,5.338,50.33,50.33,0,0,1,1.967,5.127,19.682,19.682,0,0,1,1.054,6.251q0,11.941-8.148,18.824t-20.51,6.883A28.871,28.871,0,0,1,8.007,97.421,21.12,21.12,0,0,1,0,80.213a34.139,34.139,0,0,1,1.124-9.2,21.23,21.23,0,0,1,4-7.586,56.142,56.142,0,0,1,5.127-5.689Q12.5,55.629,17.138,51.7l2.248-1.826q-1.264-1.4-5.479-5.549A64.078,64.078,0,0,1,8.218,38.21a29.267,29.267,0,0,1-3.161-5.97,21.676,21.676,0,0,1-1.686-8.5,22.336,22.336,0,0,1,7.3-16.787A24.221,24.221,0,0,1,27.955,0Q38.21,0,45.164,6.111t6.954,16.225a23.194,23.194,0,0,1-2.388,10.255,31.665,31.665,0,0,1-4.776,7.516Q42.565,42.705,37.507,47.341Zm-8.429-5.619q11.8-10.4,11.8-19.386a15,15,0,0,0-3.442-9.9,11.351,11.351,0,0,0-9.2-4.144,9.967,9.967,0,0,0-8.78,4.425,17.869,17.869,0,0,0-3.02,10.325,10.674,10.674,0,0,0,.7,3.723,24.644,24.644,0,0,0,1.475,3.3A23.25,23.25,0,0,0,21,33.434q1.615,1.967,2.6,2.95t2.95,2.88Q28.517,41.16,29.079,41.722Zm-2.81,14.891-2.107,1.826Q20.65,61.529,19.175,63a54.213,54.213,0,0,0-3.723,4.285,16.514,16.514,0,0,0-3.091,5.76,24.586,24.586,0,0,0-.843,6.743,15.658,15.658,0,0,0,4.425,10.957A13.959,13.959,0,0,0,26.55,95.525,15,15,0,0,0,38,90.819a16.46,16.46,0,0,0,4.425-11.73,14.224,14.224,0,0,0-.983-5.2,19.409,19.409,0,0,0-3.091-5.127q-2.107-2.6-3.723-4.285t-4.566-4.355Q27.112,57.455,26.269,56.612Z" transform="translate(0 55.489) rotate(-90)"/></g><g transform="translate(4248 -308.011) rotate(180)"><path class="a" d="M37.507,56.612l-1.264-1.264q.281-.281,4.074-3.933t4.706-4.636q.913-.983,3.723-4.355a27.429,27.429,0,0,0,3.723-5.338,50.329,50.329,0,0,0,1.967-5.127,19.682,19.682,0,0,0,1.054-6.251q0-11.941-8.148-18.824T26.831,0A28.871,28.871,0,0,0,8.007,6.532,21.12,21.12,0,0,0,0,23.741a34.139,34.139,0,0,0,1.124,9.2,21.23,21.23,0,0,0,4,7.586,56.141,56.141,0,0,0,5.127,5.689q2.248,2.107,6.883,6.041l2.248,1.826q-1.264,1.4-5.479,5.549a64.078,64.078,0,0,0-5.689,6.111,29.267,29.267,0,0,0-3.161,5.97,21.676,21.676,0,0,0-1.686,8.5A22.336,22.336,0,0,0,10.676,97a24.221,24.221,0,0,0,17.279,6.954q10.255,0,17.208-6.111t6.954-16.225a23.194,23.194,0,0,0-2.388-10.255,31.665,31.665,0,0,0-4.776-7.516Q42.565,61.248,37.507,56.612Zm-8.429,5.619q11.8,10.4,11.8,19.386a15,15,0,0,1-3.442,9.9,11.351,11.351,0,0,1-9.2,4.144,9.967,9.967,0,0,1-8.78-4.425,17.869,17.869,0,0,1-3.02-10.325,10.674,10.674,0,0,1,.7-3.723,24.644,24.644,0,0,1,1.475-3.3A23.25,23.25,0,0,1,21,70.52q1.615-1.967,2.6-2.95t2.95-2.88Q28.517,62.793,29.079,62.231Zm-2.81-14.891-2.107-1.826q-3.512-3.09-4.987-4.566a54.214,54.214,0,0,1-3.723-4.285,16.514,16.514,0,0,1-3.091-5.76,24.586,24.586,0,0,1-.843-6.743A15.658,15.658,0,0,1,15.944,13.2,13.959,13.959,0,0,1,26.55,8.429,15,15,0,0,1,38,13.135a16.46,16.46,0,0,1,4.425,11.73,14.224,14.224,0,0,1-.983,5.2A19.409,19.409,0,0,1,38.35,35.19q-2.107,2.6-3.723,4.285t-4.566,4.355Q27.112,46.5,26.269,47.341Z" transform="translate(0 55.489) rotate(-90)"/></g></g><path class="a" d="M-60.867.328a5.58,5.58,0,0,1-4.469-2.055A7.847,7.847,0,0,1-67.07-6.969V-9.781a8.1,8.1,0,0,1,1.742-5.32,5.266,5.266,0,0,1,4.2-2.117,4.922,4.922,0,0,1,4.125,1.892,8.075,8.075,0,0,1,1.469,5.084v1.853h-9.672v1.4A6.834,6.834,0,0,0-64.039-2.9a3.706,3.706,0,0,0,3.172,1.631,5.448,5.448,0,0,0,2.4-.489,4.962,4.962,0,0,0,1.727-1.387l.766,1.323A5.477,5.477,0,0,1-57.953-.255,6.663,6.663,0,0,1-60.867.328Zm-.266-15.891a3.417,3.417,0,0,0-2.9,1.609,6.973,6.973,0,0,0-1.18,3.969h7.8V-10.7A5.847,5.847,0,0,0-58.4-14.18,3.169,3.169,0,0,0-61.133-15.562Zm10.547-1.344.156,2.8a5.631,5.631,0,0,1,1.789-2.3,4.331,4.331,0,0,1,2.617-.812,4.025,4.025,0,0,1,3.477,1.68,9.01,9.01,0,0,1,1.211,5.227V0h-1.891V-10.3a7.236,7.236,0,0,0-.844-4.062,2.834,2.834,0,0,0-2.453-1.172,3.309,3.309,0,0,0-2.406.945,5.84,5.84,0,0,0-1.453,2.523V0h-1.875V-16.906ZM-37.727-8.3A12.807,12.807,0,0,1-36.3-14.789a4.411,4.411,0,0,1,3.984-2.43,4.453,4.453,0,0,1,2.43.656A5.316,5.316,0,0,1-28.148-14.7v-9.672h1.875V0H-27.93l-.156-2.187A5.133,5.133,0,0,1-29.852-.32a4.674,4.674,0,0,1-2.484.648A4.458,4.458,0,0,1-36.3-1.93a11.179,11.179,0,0,1-1.43-6.039Zm1.906.328a10.271,10.271,0,0,0,.961,4.836,3.127,3.127,0,0,0,2.93,1.789,3.553,3.553,0,0,0,2.3-.75,5.079,5.079,0,0,0,1.477-2.094v-8.281a5.7,5.7,0,0,0-1.437-2.211,3.277,3.277,0,0,0-2.312-.852,3.133,3.133,0,0,0-2.953,2A12.071,12.071,0,0,0-35.82-8.3ZM-19.9,0h-1.891V-24.375H-19.9Zm9.891.328a5.58,5.58,0,0,1-4.469-2.055,7.847,7.847,0,0,1-1.734-5.242V-9.781a8.1,8.1,0,0,1,1.742-5.32,5.266,5.266,0,0,1,4.2-2.117,4.922,4.922,0,0,1,4.125,1.892A8.075,8.075,0,0,1-4.68-10.243v1.853h-9.672v1.4A6.834,6.834,0,0,0-13.18-2.9a3.706,3.706,0,0,0,3.172,1.631,5.448,5.448,0,0,0,2.4-.489A4.962,4.962,0,0,0-5.883-3.141l.766,1.323A5.477,5.477,0,0,1-7.094-.255,6.663,6.663,0,0,1-10.008.328Zm-.266-15.891a3.417,3.417,0,0,0-2.9,1.609,6.973,6.973,0,0,0-1.18,3.969h7.8V-10.7a5.847,5.847,0,0,0-.984-3.477A3.169,3.169,0,0,0-10.273-15.562Zm17,11.534a2.887,2.887,0,0,0-.758-2A8.792,8.792,0,0,0,3.2-7.8,12.959,12.959,0,0,1-.578-9.961a3.737,3.737,0,0,1-1.2-2.883A4.017,4.017,0,0,1-.352-15.937a5.3,5.3,0,0,1,3.688-1.281A5.12,5.12,0,0,1,7.148-15.8,4.635,4.635,0,0,1,8.492-12.25l-.031.094H6.7a3.475,3.475,0,0,0-.906-2.391,3.122,3.122,0,0,0-2.453-1.016,3.337,3.337,0,0,0-2.406.8A2.5,2.5,0,0,0,.1-12.906a2.488,2.488,0,0,0,.656,1.8A10.814,10.814,0,0,0,3.57-9.391,11.906,11.906,0,0,1,7.352-7.18,4,4,0,0,1,8.6-4.156,4.065,4.065,0,0,1,7.156-.906,5.681,5.681,0,0,1,3.336.328,5.531,5.531,0,0,1-.75-1.144a4.508,4.508,0,0,1-1.4-3.5l.031-.094h1.75A3.351,3.351,0,0,0,.8-2.09a4.049,4.049,0,0,0,2.531.824,3.621,3.621,0,0,0,2.484-.8A2.52,2.52,0,0,0,6.727-4.029Zm13.516,0a2.887,2.887,0,0,0-.758-2A8.792,8.792,0,0,0,16.711-7.8a12.959,12.959,0,0,1-3.773-2.164,3.737,3.737,0,0,1-1.2-2.883,4.017,4.017,0,0,1,1.422-3.094,5.3,5.3,0,0,1,3.688-1.281A5.12,5.12,0,0,1,20.664-15.8a4.635,4.635,0,0,1,1.344,3.547l-.031.094H20.211a3.475,3.475,0,0,0-.906-2.391,3.122,3.122,0,0,0-2.453-1.016,3.337,3.337,0,0,0-2.406.8,2.5,2.5,0,0,0-.828,1.859,2.488,2.488,0,0,0,.656,1.8,10.814,10.814,0,0,0,2.813,1.711A11.906,11.906,0,0,1,20.867-7.18a4,4,0,0,1,1.25,3.023,4.065,4.065,0,0,1-1.445,3.25A5.681,5.681,0,0,1,16.852.328a5.531,5.531,0,0,1-4.086-1.472,4.508,4.508,0,0,1-1.4-3.5l.031-.094h1.75A3.351,3.351,0,0,0,14.32-2.09a4.049,4.049,0,0,0,2.531.824,3.621,3.621,0,0,0,2.484-.8A2.52,2.52,0,0,0,20.242-4.029ZM34.414,0q-.141-.875-.211-1.437a9.187,9.187,0,0,1-.07-1.141A6.571,6.571,0,0,1,32.141-.492a4.8,4.8,0,0,1-2.727.82,4.067,4.067,0,0,1-3.234-1.3A5.166,5.166,0,0,1,25.039-4.5,4.666,4.666,0,0,1,26.7-8.258a6.728,6.728,0,0,1,4.484-1.4h2.953v-2.078a4.076,4.076,0,0,0-.906-2.812A3.217,3.217,0,0,0,30.7-15.562a3.39,3.39,0,0,0-2.492.969,3.216,3.216,0,0,0-.977,2.375l-1.75-.016-.031-.094a4.369,4.369,0,0,1,1.445-3.4,5.338,5.338,0,0,1,3.9-1.492,5.128,5.128,0,0,1,3.781,1.43A5.511,5.511,0,0,1,36.008-11.7v8.3q0,.906.078,1.75A11,11,0,0,0,36.367,0ZM29.648-1.359a4.533,4.533,0,0,0,2.773-.9,4.834,4.834,0,0,0,1.711-2.289V-8.2h-3a4.286,4.286,0,0,0-3.07,1.086,3.542,3.542,0,0,0-1.148,2.68,3.342,3.342,0,0,0,.719,2.219A2.483,2.483,0,0,0,29.648-1.359ZM51.789-6.969a8.906,8.906,0,0,1-1.43,5.313A4.6,4.6,0,0,1,46.414.328,5.01,5.01,0,0,1,43.93-.266a4.885,4.885,0,0,1-1.766-1.719V6.5H40.289V-16.906h1.578l.2,2.328a5.319,5.319,0,0,1,1.781-1.953,4.577,4.577,0,0,1,2.516-.687,4.532,4.532,0,0,1,3.984,2.164,10.29,10.29,0,0,1,1.438,5.773Zm-1.906-2.3a8.909,8.909,0,0,0-1.016-4.518,3.255,3.255,0,0,0-2.984-1.746,3.3,3.3,0,0,0-2.3.83,5.442,5.442,0,0,0-1.414,2.161v8.534A4.75,4.75,0,0,0,43.6-1.994a3.591,3.591,0,0,0,2.3.728,3.318,3.318,0,0,0,2.977-1.558A7.5,7.5,0,0,0,49.883-6.95Zm17.047,2.3A8.906,8.906,0,0,1,65.5-1.656,4.6,4.6,0,0,1,61.555.328,5.01,5.01,0,0,1,59.07-.266,4.885,4.885,0,0,1,57.3-1.984V6.5H55.43V-16.906h1.578l.2,2.328a5.319,5.319,0,0,1,1.781-1.953,4.577,4.577,0,0,1,2.516-.687,4.532,4.532,0,0,1,3.984,2.164A10.29,10.29,0,0,1,66.93-9.281Zm-1.906-2.3a8.909,8.909,0,0,0-1.016-4.518,3.255,3.255,0,0,0-2.984-1.746,3.3,3.3,0,0,0-2.3.83A5.442,5.442,0,0,0,57.3-12.54v8.534a4.75,4.75,0,0,0,1.438,2.012,3.591,3.591,0,0,0,2.3.728,3.318,3.318,0,0,0,2.977-1.558A7.5,7.5,0,0,0,65.023-6.95Z" transform="translate(4148.07 -274)"/></g></svg>