<svg xmlns="http://www.w3.org/2000/svg" viewBox="0 0 574.45 145.35"><defs><style>.cls-1{fill:#fff;}</style></defs><title>CONVERT_Logo</title><g id="Ebene_2" data-name="Ebene 2"><g id="Ebene_1-2" data-name="Ebene 1"><path class="cls-1" d="M117.54,33.21V48.75c0,4.41,1,8,3,10.55a9,9,0,0,0,7.68,3.56c3.15,0,5.31-.72,6.43-2.15.91-1.16,2-3.64,2.31-8.81l.14-2.85h21.72l.68,2.05.11.31.17.51,0,.55c-.37,9.43-3.27,16.8-8.62,21.91s-13.06,7.68-22.92,7.68-18.11-3.12-24.39-9.29-9.48-14.26-9.48-24V33.31c0-9.7,3.07-17.76,9.11-24S117.49,0,127.09,0c10.09,0,18,2.65,23.49,7.89s8.61,12.61,9.3,22l.05.6-.19.57-.1.31L159,33.42H137.23l-.14-2.85c-.21-4.13-1.06-7.15-2.55-9-1.31-1.6-3.81-2.41-7.45-2.41a7.68,7.68,0,0,0-6.75,3.44C118.48,25.24,117.54,28.8,117.54,33.21ZM222.47,9.78c6.37,6.48,9.59,14.76,9.59,24.6v13.3c0,9.88-3.2,18.16-9.51,24.62s-14.66,9.76-24.76,9.76-18.56-3.28-24.94-9.75-9.6-14.75-9.6-24.63V34.38c0-9.84,3.22-18.12,9.57-24.59S187.55,0,197.68,0,216.09,3.29,222.47,9.78ZM189.51,59c1.91,2.59,4.62,3.85,8.28,3.85a9.14,9.14,0,0,0,8-3.85c2.08-2.84,3.13-6.65,3.13-11.33V34.28c0-4.6-1.06-8.38-3.15-11.22a9.27,9.27,0,0,0-8.12-3.86c-3.65,0-6.34,1.25-8.21,3.82-2.06,2.83-3.1,6.62-3.1,11.26v13.4C186.37,52.35,187.42,56.16,189.51,59ZM283.6,1.07h-3v39.4L258.83,2.57,258,1.07H236V81h23.21V41.59L281,79.49l.86,1.51h21.85V1.07H283.6Zm75.29,0h-2.3L356,3.28,343.59,49,331.32,3.29l-.6-2.22H306.38L307.64,5l23.87,73.93.67,2.08h22.9l.67-2.08L379.71,5,381,1.07h-22.1Zm27.71,0h-3V81H441V61.79H406.81V49.36h29V30.16h-29V20.27h34.27V1.07H386.6Zm125.91,73.5,1.22.9V81H492l-.81-.63c-2-1.53-3.25-4.05-3.8-7.49a51.42,51.42,0,0,1-.67-7.88V60.53c0-2.72-.62-4.66-1.91-6s-3.31-1.92-6.05-1.92H470V81H446.75V1.07h31.44c9.21,0,16.69,2.21,22.22,6.58,5.74,4.54,8.65,10.8,8.65,18.61a19.18,19.18,0,0,1-3.6,11.62,21.23,21.23,0,0,1-4.59,4.53,16.71,16.71,0,0,1,5.54,5.17,22.89,22.89,0,0,1,3.46,12.85V65.1a26.71,26.71,0,0,0,.79,5.92A6,6,0,0,0,512.51,74.57ZM470,33.46h8.33c2.7,0,4.7-.55,6-1.63a5.6,5.6,0,0,0,1.7-4.51A6.81,6.81,0,0,0,484,22.18c-1.31-1.29-3.22-1.91-5.84-1.91H470ZM571.45,1.07H512.39v19.2h19.35V81H555V20.27h19.5V1.07ZM82.61,79.56,8,2.77C5.23-.26,0,1.84,0,6.14V118.93a4.65,4.65,0,0,0,8,3.38L30.7,98.91l13.92,33.9a.36.36,0,0,1,0,.09,4.65,4.65,0,0,0,6.09,2.46l12.9-5.63a4.87,4.87,0,0,0,2.48-6.3L51.48,87.74H79.32A4.82,4.82,0,0,0,82.61,79.56Zm26.9,50.71a6.84,6.84,0,0,1-4.05,1,7.47,7.47,0,0,1-4.2-1.19,4.45,4.45,0,0,1-1.91-3.75H94.73l0,.14a7.35,7.35,0,0,0,2.78,6q2.91,2.58,8,2.58a12,12,0,0,0,7.49-2.18,6.9,6.9,0,0,0,2.86-5.73,5.9,5.9,0,0,0-2.46-5,19.28,19.28,0,0,0-7.49-2.94,11.37,11.37,0,0,1-4.5-1.62,3,3,0,0,1-1.1-2.48,3.52,3.52,0,0,1,1.25-2.73,5.58,5.58,0,0,1,3.83-1.13,5.35,5.35,0,0,1,3.87,1.39,4.2,4.2,0,0,1,1.46,3.13h4.62l0-.15a7,7,0,0,0-2.61-5.79,10.87,10.87,0,0,0-7.39-2.39,10.85,10.85,0,0,0-7.17,2.28,6.92,6.92,0,0,0-2.75,5.52,5.78,5.78,0,0,0,2.44,4.92,19.37,19.37,0,0,0,7.29,2.86,11.4,11.4,0,0,1,4.6,1.79,3.31,3.31,0,0,1,1.22,2.63A3.22,3.22,0,0,1,109.51,130.27ZM139,134.18a11,11,0,0,0,3.75-2.35l-1.89-3.14a10,10,0,0,1-3.2,1.93,12.38,12.38,0,0,1-4.32.7,6.18,6.18,0,0,1-5.23-2.47,10.47,10.47,0,0,1-1.94-6.28l.07-.12h17.25v-3a12.92,12.92,0,0,0-2.75-8.64q-2.76-3.25-8.13-3.25a10.42,10.42,0,0,0-8,3.77,13.67,13.67,0,0,0-3.38,9.45v1.08a13.93,13.93,0,0,0,3.28,9.6,11.23,11.23,0,0,0,8.83,3.69A15.1,15.1,0,0,0,139,134.18Zm-1.87-20.93a7.41,7.41,0,0,1,1.52,4.75v.64H126.41l0-.12a9.75,9.75,0,0,1,2.11-5.14,5.28,5.28,0,0,1,4.16-2A5.45,5.45,0,0,1,137.15,113.25Zm17.53-17h-4.84v38.33h4.84Zm13.18,0H163v38.33h4.84Zm13.18,0H176.2v4.94H181ZM181,108H176.2v26.59H181Zm8,0v26.59h4.84V115.22a7.32,7.32,0,0,1,2.57-2.75,6.81,6.81,0,0,1,3.69-1,5.57,5.57,0,0,1,4.24,1.48q1.39,1.47,1.39,5v16.69h4.84V117.83c0-3.51-.78-6.1-2.36-7.78a8.67,8.67,0,0,0-6.66-2.52A8.83,8.83,0,0,0,197,108.7a9.58,9.58,0,0,0-3.33,3.28l-.35-4Zm28,14.3a14.49,14.49,0,0,0,2.8,9.27,9.25,9.25,0,0,0,7.69,3.53,9.83,9.83,0,0,0,4.17-.84,8.42,8.42,0,0,0,3.12-2.52v3a6.69,6.69,0,0,1-1.6,4.9c-1.08,1.07-2.79,1.61-5.15,1.61a14.82,14.82,0,0,1-3.64-.46,12.18,12.18,0,0,1-3.14-1.19l-1.23,3.76a16.24,16.24,0,0,0,3.92,1.44,18.07,18.07,0,0,0,4.14.53c3.73,0,6.59-.92,8.57-2.74s3-4.45,3-7.85V108h-3.86l-.59,3.47a8.73,8.73,0,0,0-3.2-2.94,9.3,9.3,0,0,0-4.44-1,9,9,0,0,0-7.74,3.93q-2.81,3.93-2.8,10.35Zm4.84-.51a14.44,14.44,0,0,1,1.72-7.45,5.63,5.63,0,0,1,5.18-2.9,6.32,6.32,0,0,1,3.61,1,7.45,7.45,0,0,1,2.43,2.69v12.23a7.42,7.42,0,0,1-2.43,2.82,6.41,6.41,0,0,1-3.66,1,5.87,5.87,0,0,1-5.16-2.43,11.05,11.05,0,0,1-1.69-6.44Zm43.68,6.79a13,13,0,0,1-1.62-6.78v-1a12.85,12.85,0,0,1,1.63-6.71q1.64-2.74,5.45-2.74a5.89,5.89,0,0,1,4.34,1.71,5.61,5.61,0,0,1,1.72,4.14h4.38l.05-.15a8.58,8.58,0,0,0-2.87-6.76,10.75,10.75,0,0,0-7.62-2.75q-5.77,0-8.86,3.8a14.52,14.52,0,0,0-3.09,9.47v1a14.58,14.58,0,0,0,3.08,9.51q3.06,3.78,8.87,3.78a11.17,11.17,0,0,0,7.4-2.67,7.51,7.51,0,0,0,3.06-6.12l-.05-.15h-4.35a4.54,4.54,0,0,1-1.83,3.65,6.52,6.52,0,0,1-4.23,1.49Q267.18,131.32,265.56,128.6Zm20.73-7a14.53,14.53,0,0,0,3.2,9.72,11.9,11.9,0,0,0,17.41,0,14.54,14.54,0,0,0,3.19-9.73v-.54a14.62,14.62,0,0,0-3.2-9.73,11.84,11.84,0,0,0-17.41,0,14.64,14.64,0,0,0-3.19,9.72Zm4.84-.55a12.61,12.61,0,0,1,1.78-7,5.82,5.82,0,0,1,5.24-2.77,5.93,5.93,0,0,1,5.3,2.77,12.53,12.53,0,0,1,1.8,7v.54a12.49,12.49,0,0,1-1.79,7,6.43,6.43,0,0,1-10.55,0,12.57,12.57,0,0,1-1.78-7Zm25.39-13v26.59h4.84V115.22a7.32,7.32,0,0,1,2.57-2.75,6.81,6.81,0,0,1,3.69-1,5.57,5.57,0,0,1,4.24,1.48q1.39,1.47,1.39,5v16.69h4.84V117.83q0-5.26-2.36-7.78a8.67,8.67,0,0,0-6.66-2.52,8.83,8.83,0,0,0-4.55,1.17,9.58,9.58,0,0,0-3.33,3.28l-.35-4Zm30.65-6.41V108h-4.23v3.59h4.23v16.14c0,2.54.58,4.41,1.74,5.59a6.28,6.28,0,0,0,4.7,1.78,8,8,0,0,0,2.1-.28,4.4,4.4,0,0,0,1.58-.72l-.64-3.32a6,6,0,0,1-.89.25,5.37,5.37,0,0,1-.92.09,2.8,2.8,0,0,1-2.06-.76,3.62,3.62,0,0,1-.77-2.63V111.61h5V108h-5v-6.41Zm37.68,33a13.6,13.6,0,0,1-.54-2.61,24.4,24.4,0,0,1-.15-2.75v-12.8a8.15,8.15,0,0,0-2.75-6.62,11,11,0,0,0-7.28-2.3,11.21,11.21,0,0,0-7.45,2.41q-2.9,2.4-2.74,5.31l.05.14h4.62a3.58,3.58,0,0,1,1.46-2.86,5.83,5.83,0,0,1,3.79-1.19,5.59,5.59,0,0,1,4,1.36,4.9,4.9,0,0,1,1.43,3.7V119h-5.26a14.45,14.45,0,0,0-8.37,2.15,6.87,6.87,0,0,0-3.08,6,7.82,7.82,0,0,0,2.18,5.86c1.45,1.42,3.55,2.12,6.32,2.12a9,9,0,0,0,4.68-1.29,11.24,11.24,0,0,0,3.53-3.2,14.28,14.28,0,0,0,.16,1.85c.09.62.22,1.33.38,2.13ZM368.56,130a3.64,3.64,0,0,1-1.11-2.8,4.4,4.4,0,0,1,1.76-3.45,7.05,7.05,0,0,1,4.68-1.47h5.43v4.31a6.43,6.43,0,0,1-2.75,3.09,8.62,8.62,0,0,1-4.74,1.35A4.65,4.65,0,0,1,368.56,130Zm22-8.41a14.53,14.53,0,0,0,3.21,9.72,11.89,11.89,0,0,0,17.4,0,14.55,14.55,0,0,0,3.2-9.73v-.54a14.58,14.58,0,0,0-3.21-9.73,11.84,11.84,0,0,0-17.41,0,14.64,14.64,0,0,0-3.19,9.72Zm4.84-.55a12.61,12.61,0,0,1,1.78-7,5.84,5.84,0,0,1,5.25-2.77,5.91,5.91,0,0,1,5.29,2.77,12.45,12.45,0,0,1,1.81,7v.54a12.49,12.49,0,0,1-1.8,7,6.43,6.43,0,0,1-10.55,0,12.57,12.57,0,0,1-1.78-7Zm40-19.45V108h-4.23v3.59h4.23v16.14c0,2.54.58,4.41,1.74,5.59a6.28,6.28,0,0,0,4.7,1.78,8,8,0,0,0,2.1-.28,4.4,4.4,0,0,0,1.58-.72l-.64-3.32a6,6,0,0,1-.89.25,5.37,5.37,0,0,1-.92.09,2.8,2.8,0,0,1-2.06-.76,3.62,3.62,0,0,1-.77-2.63V111.61h5V108h-5v-6.41Zm21.19-5.33H451.7v38.33h4.84V115a8,8,0,0,1,2.69-2.57,7.17,7.17,0,0,1,3.65-1,5.36,5.36,0,0,1,4.21,1.58,7.05,7.05,0,0,1,1.42,4.86v16.71h4.84V118q0-5.31-2.37-7.86a8.57,8.57,0,0,0-6.63-2.56,9.27,9.27,0,0,0-4.43,1.07,9.76,9.76,0,0,0-3.38,3Zm40.95,37.9a11,11,0,0,0,3.76-2.35l-1.9-3.14a10,10,0,0,1-3.2,1.93,12.37,12.37,0,0,1-4.31.7,6.19,6.19,0,0,1-5.24-2.47,10.47,10.47,0,0,1-1.94-6.28l.08-.12H502v-3a12.87,12.87,0,0,0-2.75-8.64q-2.75-3.25-8.13-3.25a10.42,10.42,0,0,0-8,3.77,13.67,13.67,0,0,0-3.38,9.45v1.08a14,14,0,0,0,3.28,9.6,11.23,11.23,0,0,0,8.84,3.69A15.08,15.08,0,0,0,497.49,134.18Zm-1.87-20.93a7.35,7.35,0,0,1,1.52,4.75v.64H484.88l-.05-.12a9.76,9.76,0,0,1,2.12-5.14,5.24,5.24,0,0,1,4.15-2A5.45,5.45,0,0,1,495.62,113.25Zm12.3-5.23v26.59h4.84V114.93a5.83,5.83,0,0,1,2.18-2.56,6.73,6.73,0,0,1,3.64-.91,4.79,4.79,0,0,1,4,1.74q1.39,1.72,1.39,5.46v16h4.87V117.53a7.53,7.53,0,0,1,1.8-4.35,5.16,5.16,0,0,1,4-1.72,4.94,4.94,0,0,1,4,1.64q1.35,1.64,1.35,5.56v16h4.84v-15.9q0-5.59-2.36-8.39a8,8,0,0,0-6.41-2.79,8.68,8.68,0,0,0-4.82,1.33,9.8,9.8,0,0,0-3.31,3.59,7.45,7.45,0,0,0-2.87-3.69,8.21,8.21,0,0,0-4.55-1.23,9.88,9.88,0,0,0-4.66,1,8.85,8.85,0,0,0-3.3,2.93l-.35-3.49Zm61.16,26.16a10.94,10.94,0,0,0,3.76-2.35L571,128.69a10,10,0,0,1-3.2,1.93,12.38,12.38,0,0,1-4.32.7,6.17,6.17,0,0,1-5.23-2.47,10.47,10.47,0,0,1-1.94-6.28l.07-.12h17.25v-3a12.92,12.92,0,0,0-2.75-8.64q-2.76-3.25-8.13-3.25a10.42,10.42,0,0,0-8,3.77,13.67,13.67,0,0,0-3.38,9.45v1.08a13.93,13.93,0,0,0,3.28,9.6,11.23,11.23,0,0,0,8.83,3.69A15,15,0,0,0,569.08,134.18Zm-1.86-20.93a7.41,7.41,0,0,1,1.52,4.75v.64H556.48l-.05-.12a9.75,9.75,0,0,1,2.11-5.14,5.26,5.26,0,0,1,4.16-2A5.46,5.46,0,0,1,567.22,113.25Z"/></g></g></svg>