<svg xmlns="http://www.w3.org/2000/svg" width="42" height="42" viewBox="0 0 42 42">
  <path id="" data-name="" d="M21.563.563a21,21,0,1,0,21,21A21,21,0,0,0,21.563.563Zm0,9.315a3.556,3.556,0,1,1-3.556,3.556A3.556,3.556,0,0,1,21.563,9.877ZM26.3,31.385A1.016,1.016,0,0,1,25.288,32.4H17.837a1.016,1.016,0,0,1-1.016-1.016V29.353a1.016,1.016,0,0,1,1.016-1.016h1.016V22.917H17.837A1.016,1.016,0,0,1,16.821,21.9V19.869a1.016,1.016,0,0,1,1.016-1.016h5.419a1.016,1.016,0,0,1,1.016,1.016v8.468h1.016A1.016,1.016,0,0,1,26.3,29.353Z" transform="translate(-0.563 -0.563)" fill="#f37920"/>
</svg>
