<svg xmlns="http://www.w3.org/2000/svg" width="119.952" height="188.751" viewBox="0 0 119.952 188.751"><g transform="translate(-177.381 -2620.208)"><path d="M145.823,263.34c-13.815-12.539-58.587-15.785-58.587-15.785l-.05-.005c-.233.017-44.745,3.41-58.493,15.95-.986,19.487-13.382,103.925,58.507,132l.05.007C159.075,367.26,146.856,282.826,145.823,263.34Z" transform="translate(150.101 2413.45)"/><path d="M137.009,262.167c-12.788-11.607-54.231-14.612-54.231-14.612l-.047,0c-.216.016-41.418,3.157-54.144,14.764-.913,18.038-12.387,96.2,54.157,122.188l.047.006C149.276,358.36,137.966,280.2,137.009,262.167Z" transform="translate(154.893 2418.45)" fill="#fff"/><path d="M137.648,313.524c-12.788-11.607-54.9-14.612-54.9-14.612h0c-.216.016-40.793,3.152-53.519,14.759.089.1,1.048,56.344,53.519,72.712h-.291C133.19,369.431,137.481,313.691,137.648,313.524Z" transform="translate(154.893 2420.45)"/><g transform="translate(-1037.438 1767.208)"><text transform="translate(1272.119 873.737)" font-size="10" font-family="ArialMT, Arial"/><circle cx="21.752" cy="21.752" r="21.752" transform="translate(1240.818 885.312)"/><circle cx="18.584" cy="18.584" r="18.584" transform="translate(1271.229 897.772)"/><circle cx="12.566" cy="12.566" r="12.566" transform="translate(1244.198 872.852)"/><circle cx="18.373" cy="18.373" r="18.373" transform="translate(1265.95 867.15)"/><circle cx="11.826" cy="11.826" r="11.826" transform="translate(1288.547 889.958)"/><circle cx="7.92" cy="7.92" r="7.92" transform="translate(1288.547 859.124)"/><circle cx="4.963" cy="4.963" r="4.963" transform="translate(1306.286 853)"/><circle cx="4.963" cy="4.963" r="4.963" transform="translate(1228.252 887.416)"/><circle cx="6.441" cy="6.441" r="6.441" transform="translate(1234.483 908.753)"/><circle cx="2.534" cy="2.534" r="2.534" transform="translate(1314.1 876.653)"/><circle cx="4.646" cy="4.646" r="4.646" transform="translate(1311.566 911.71)"/><circle cx="2.534" cy="2.534" r="2.534" transform="translate(1321.703 916.779)"/><circle cx="3.379" cy="3.379" r="3.379" transform="translate(1224.438 888.124)"/><path d="M17.91-114.213a10.331,10.331,0,0,1,3.99.747,7.886,7.886,0,0,1,3.079,2.277q2.769,3.243,2.769,9.291t-2.769,9.291a8.706,8.706,0,0,1-7.032,3.024,8.856,8.856,0,0,1-7.1-3.024q-2.733-3.17-2.733-9.291t2.733-9.291A8.814,8.814,0,0,1,17.91-114.213ZM23.3-101.9a11.531,11.531,0,0,0-1.4-6.249,4.466,4.466,0,0,0-3.971-2.168,4.466,4.466,0,0,0-3.971,2.168,11.531,11.531,0,0,0-1.4,6.249,11.337,11.337,0,0,0,1.4,6.212,4.485,4.485,0,0,0,3.971,2.131A4.485,4.485,0,0,0,21.9-95.685,11.337,11.337,0,0,0,23.3-101.9Zm10.02,12.133a2.983,2.983,0,0,1-2.15-.8,2.7,2.7,0,0,1-.838-2.04,2.82,2.82,0,0,1,.838-2.077,2.91,2.91,0,0,1,2.15-.838,3.035,3.035,0,0,1,2.186.838,2.761,2.761,0,0,1,.874,2.077,2.646,2.646,0,0,1-.874,2.04A3.112,3.112,0,0,1,33.322-89.765Zm5.5-22.189a10.549,10.549,0,0,0,4.809-1.931h3.243v23.792h-4.3v-18.655a8.45,8.45,0,0,1-3.753.911Z" transform="translate(1246.588 1003.755)" fill="#fff"/><rect width="79.442" height="11.715" transform="translate(1234.483 924.437)"/><path d="M4.313-27.5H7.838v.619H5.033v1.922H7.674v.61H5.033V-22.4H7.838v.629H4.313Zm6.877,0,2.842,4.6v-4.6h.72v5.729h-.8l-2.888-4.664v4.664h-.729V-27.5Zm6.3,0h3.525v.619H18.213v1.922h2.642v.61H18.213V-22.4h2.806v.629H17.494Zm10.029,1.64a1.693,1.693,0,0,1-.378,1.148,1.828,1.828,0,0,1-1.116.565l1.64,2.377h-.929l-1.485-2.341h-1v2.341h-.72V-27.5h1.995a2.136,2.136,0,0,1,1.48.465A1.514,1.514,0,0,1,27.523-25.865Zm-2.049,1.248a1.375,1.375,0,0,0,.979-.314,1.088,1.088,0,0,0,.332-.829,1.074,1.074,0,0,0-.323-.82,1.31,1.31,0,0,0-.934-.305H24.253v2.268Zm8.1,1.858a1.462,1.462,0,0,1-1.485,1.084,2.3,2.3,0,0,1-1.808-.8,3.15,3.15,0,0,1-.706-2.159,2.986,2.986,0,0,1,.77-2.159,2.55,2.55,0,0,1,1.917-.8,2.443,2.443,0,0,1,1.18.273,2.331,2.331,0,0,1,.87.874l-.692.237a1.74,1.74,0,0,0-1.385-.738,1.7,1.7,0,0,0-1.344.647,2.5,2.5,0,0,0-.551,1.681,2.693,2.693,0,0,0,.474,1.662,1.515,1.515,0,0,0,1.275.629,1.365,1.365,0,0,0,1.057-.437,1.854,1.854,0,0,0,.4-1.293v-.018L32.1-24.134v-.474h2.141v2.833h-.583Zm3.27-4.746,1.539,2.632L39.956-27.5H40.8l-2.059,3.379v2.35h-.729v-2.35L35.985-27.5ZM48.856-26.11q-.155-.838-1.23-.838a1.373,1.373,0,0,0-.884.25.751.751,0,0,0-.31.6.7.7,0,0,0,.191.533,1.619,1.619,0,0,0,.619.319l1.193.41a2.459,2.459,0,0,1,.97.574,1.4,1.4,0,0,1,.36,1.025,1.372,1.372,0,0,1-.565,1.111,2.355,2.355,0,0,1-1.512.451,2.43,2.43,0,0,1-1.553-.478,1.662,1.662,0,0,1-.624-1.344h.7a1.021,1.021,0,0,0,.4.865,1.642,1.642,0,0,0,1.02.3,1.592,1.592,0,0,0,.988-.278.81.81,0,0,0,.364-.656.8.8,0,0,0-.223-.6,1.705,1.705,0,0,0-.66-.364L47.088-24.6a3.045,3.045,0,0,1-1.075-.565,1.226,1.226,0,0,1-.364-.961,1.319,1.319,0,0,1,.51-1.057,2.177,2.177,0,0,1,1.43-.424A2.148,2.148,0,0,1,49-27.2a1.573,1.573,0,0,1,.56,1.089ZM53.51-27.5h.874l1.922,5.729H55.56l-.492-1.457H52.791L52.3-21.775h-.756ZM52.982-23.8h1.9l-.947-2.824ZM58.119-27.5l1.64,4.819L61.408-27.5h.756l-2.031,5.729h-.747L57.363-27.5Zm6.039,0h.72v5.729h-.72Zm4.3,0L71.3-22.9v-4.6h.72v5.729h-.8L68.33-26.438v4.664H67.6V-27.5Zm9.856,4.746a1.462,1.462,0,0,1-1.485,1.084,2.3,2.3,0,0,1-1.808-.8,3.15,3.15,0,0,1-.706-2.159,2.986,2.986,0,0,1,.77-2.159A2.55,2.55,0,0,1,77-27.6a2.443,2.443,0,0,1,1.18.273,2.331,2.331,0,0,1,.87.874l-.692.237a1.74,1.74,0,0,0-1.385-.738,1.7,1.7,0,0,0-1.344.647,2.5,2.5,0,0,0-.551,1.681,2.693,2.693,0,0,0,.474,1.662,1.515,1.515,0,0,0,1.275.629,1.365,1.365,0,0,0,1.057-.437,1.854,1.854,0,0,0,.4-1.293v-.018l-1.439-.055v-.474h2.141v2.833H78.4Z" transform="translate(1232.498 954.966)" fill="#fff"/><path d="M4.575-28.591a3.04,3.04,0,0,1,.949.132,2.158,2.158,0,0,1,.693.369,2.179,2.179,0,0,1,.748,1.3l-1.149.21a1.712,1.712,0,0,0-.451-.752,1.069,1.069,0,0,0-.762-.287,1.19,1.19,0,0,0-1,.52,2.62,2.62,0,0,0-.41,1.564,2.846,2.846,0,0,0,.365,1.56,1.13,1.13,0,0,0,.994.561,1.323,1.323,0,0,0,.949-.306,1.043,1.043,0,0,0,.319-.789H6.974a1.913,1.913,0,0,1-.634,1.537,2.585,2.585,0,0,1-1.738.543,2.321,2.321,0,0,1-1.87-.821,3.442,3.442,0,0,1-.7-2.28,3.341,3.341,0,0,1,.721-2.28A2.317,2.317,0,0,1,4.575-28.591Zm6.841,0a2.909,2.909,0,0,1,1.085.2,2.307,2.307,0,0,1,.848.579,3.248,3.248,0,0,1,.748,2.3,3.332,3.332,0,0,1-.748,2.326,2.521,2.521,0,0,1-1.943.766,2.48,2.48,0,0,1-1.934-.784,3.283,3.283,0,0,1-.748-2.308,3.277,3.277,0,0,1,.748-2.317A2.519,2.519,0,0,1,11.415-28.591ZM12.984-25.5a2.529,2.529,0,0,0-.424-1.569,1.368,1.368,0,0,0-1.145-.552,1.381,1.381,0,0,0-1.149.552A2.509,2.509,0,0,0,9.838-25.5a2.468,2.468,0,0,0,.429,1.56,1.389,1.389,0,0,0,1.149.543,1.377,1.377,0,0,0,1.145-.543A2.488,2.488,0,0,0,12.984-25.5Zm4.46-2.969,2.609,4.2v-4.2h1.076v5.92H20.035l-2.691-4.342v4.342H16.268v-5.92Zm5.5,0h4.743v.93H25.854v4.989H24.778v-4.989H22.944Zm7.516,0h1.35l1.943,5.92h-1.14L32.2-23.83H30l-.42,1.277h-1.14Zm-.182,3.831h1.66l-.821-2.545Zm7.707-3.949a2.909,2.909,0,0,1,1.085.2,2.307,2.307,0,0,1,.848.579,3.248,3.248,0,0,1,.748,2.3,3.332,3.332,0,0,1-.748,2.326,2.521,2.521,0,0,1-1.943.766,2.48,2.48,0,0,1-1.934-.784,3.283,3.283,0,0,1-.748-2.308,3.277,3.277,0,0,1,.748-2.317A2.519,2.519,0,0,1,37.985-28.591ZM39.554-25.5a2.528,2.528,0,0,0-.424-1.569,1.368,1.368,0,0,0-1.145-.552,1.381,1.381,0,0,0-1.149.552,2.509,2.509,0,0,0-.429,1.569,2.468,2.468,0,0,0,.429,1.56,1.389,1.389,0,0,0,1.149.543,1.377,1.377,0,0,0,1.145-.543A2.488,2.488,0,0,0,39.554-25.5Zm5.728-2.969h4.743v.93H48.191v4.989H47.115v-4.989H45.282Zm7.634,0V-26H55.5v-2.472h1.076v5.92H55.5v-2.508H52.916v2.508H51.84v-5.92Zm6.266,0h3.813v.93H60.259v1.56h2.563v.93H60.259v1.56h2.736v.939H59.182Zm7.808,0,1.624,3.521,1.624-3.521h1.487v5.92H70.638v-4.5L68.96-23.2h-.7l-1.733-3.977v4.624H65.449v-5.92Zm7.333,0h3.813v.93H75.4v1.56h2.563v.93H75.4v1.56h2.736v.939H74.323Z" transform="translate(1234.36 967.58)"/></g><text transform="translate(187 2738)" fill="#fff" font-size="9" font-family="Lato-Bold, Lato" font-weight="700"><tspan x="6.847" y="9">Von den Machern des </tspan><tspan x="9.617" y="21">klimafreundlichsten </tspan><tspan x="18.198" y="33">Contao-Themes </tspan><tspan x="27.052" y="45">aller Zeiten</tspan></text></g></svg>