<svg xmlns="http://www.w3.org/2000/svg" width="199.333" height="54.63" viewBox="0 0 199.333 54.63"><g transform="translate(-0.01 0.007)"><rect width="115.162" height="17.716" rx="5.67" transform="translate(83.671 36.907)" fill="#f47c00"/><path d="M250.454,30.2a10.921,10.921,0,0,1-8.011-3.257c-3-3-2.924-6.716-2.924-11.841s-.08-8.841,2.924-11.848A10.938,10.938,0,0,1,250.454,0c5.556,0,9.886,3.17,10.931,9.375h-5.9c-.583-2.379-2.083-4.209-5-4.209a4.806,4.806,0,0,0-3.708,1.531c-1.129,1.264-1.465,2.674-1.465,8.393s.347,7.122,1.465,8.382a4.8,4.8,0,0,0,3.708,1.538c2.92,0,4.42-1.833,5-4.209h5.9C260.34,27.025,255.961,30.2,250.454,30.2Zm28.571-2.67a9.837,9.837,0,0,1-13.476,0c-1.958-2.042-2.458-4.514-2.458-8.466s.5-6.382,2.458-8.431a8.92,8.92,0,0,1,6.719-2.66,9.014,9.014,0,0,1,6.757,2.66c1.962,2.045,2.462,4.514,2.462,8.431s-.5,6.42-2.458,8.466ZM274.813,13.8a3.424,3.424,0,0,0-2.542-.958,3.344,3.344,0,0,0-2.507.958c-1.122,1.129-1.25,3-1.25,5.257s.129,4.167,1.25,5.288a3.334,3.334,0,0,0,2.507.969,3.413,3.413,0,0,0,2.542-.969c1.129-1.125,1.254-3.042,1.254-5.288S275.942,14.93,274.813,13.8Zm22.019,16.143V16.8c0-2.962-1.875-3.959-3.587-3.959s-3.625,1-3.625,3.959v13.14h-5.431V8.211h5.306v2.007a7.407,7.407,0,0,1,5.407-2.25,6.987,6.987,0,0,1,5.132,1.92,7.994,7.994,0,0,1,2.212,6.167v13.89Zm15.681,0a5.9,5.9,0,0,1-6.3-6.219V12.962h-2.281V8.84h2.292V2.416a19.391,19.391,0,0,0,5.427-1.191V8.84h3.82v4.129h-3.82V23.386c0,1.25.587,1.962,1.882,1.962h1.955v4.587Zm17.015,0V28.07a6.578,6.578,0,0,1-5.337,2.083,7.348,7.348,0,0,1-5.556-1.924,6.973,6.973,0,0,1-1.792-4.882c0-3.472,2.375-6.292,7.424-6.292h5.125V15.969c0-2.372-1.16-3.424-4.038-3.424a4.653,4.653,0,0,0-4.167,1.8l-3.472-3.379c2.129-2.337,4.215-3,7.844-3,6.091,0,9.257,2.58,9.257,7.671V29.945Zm-.128-9.171h-4.288c-1.962,0-3.045.913-3.045,2.452s1,2.5,3.125,2.5c1.5,0,2.462-.118,3.417-1.042a3.587,3.587,0,0,0,.788-2.754Zm23.831,6.754a9,9,0,0,1-6.761,2.67,8.9,8.9,0,0,1-6.716-2.67c-1.962-2.042-2.458-4.514-2.458-8.466s.5-6.382,2.458-8.431a8.9,8.9,0,0,1,6.716-2.66,9.017,9.017,0,0,1,6.761,2.66c1.958,2.045,2.455,4.514,2.455,8.431s-.51,6.417-2.469,8.462ZM349,13.8a3.441,3.441,0,0,0-2.549-.958,3.32,3.32,0,0,0-2.5.958c-1.129,1.129-1.257,3-1.257,5.257s.128,4.167,1.257,5.288a3.309,3.309,0,0,0,2.5.969A3.431,3.431,0,0,0,349,24.348c1.122-1.125,1.247-3.042,1.247-5.288S350.112,14.93,349,13.8Z" transform="translate(-156.342 0)" fill="#f47c00"/><path d="M4.111,1.42A4.1,4.1,0,0,0,.01,5.5V51.478a4.1,4.1,0,0,0,4.1,4.077h53.8a4.1,4.1,0,0,0,4.1-4.077V5.5a4.1,4.1,0,0,0-4.1-4.077Z" transform="translate(0 -0.931)" fill="#fff"/><path d="M5.521,34.252c1.736,8.077,3.181,15.768,8.24,21.3H4.111a4.1,4.1,0,0,1-4.1-4.077V5.5a4.1,4.1,0,0,1,4.1-4.077h6.973A26.668,26.668,0,0,0,6.649,6.663C1.128,15.1,3.4,24.317,5.521,34.252ZM57.916,1.42H46.974A29.39,29.39,0,0,1,53.4,11.535L36.762,15.046c-1.823-3.493-4.594-6.4-10.014-5.257A8.111,8.111,0,0,0,20.9,13.935c-1.08,2.264-1.611,4.8.972,16.865s4.1,14.167,6.014,15.8a8.169,8.169,0,0,0,7.046,1.42c5.424-1.142,6.761-4.917,7-8.844l16.633-3.514c.392,8.6-2.271,15.279-6.973,19.893h6.327a4.1,4.1,0,0,0,4.1-4.077V5.5a4.1,4.1,0,0,0-4.1-4.077Z" transform="translate(0 -0.931)" fill="#f47c00"/><path d="M262.682,127.067a3.264,3.264,0,0,1-4.545,0c-.851-.851-.826-1.9-.826-3.354s-.024-2.5.826-3.354a3.264,3.264,0,0,1,4.545,0c.851.851.837,1.9.837,3.354S263.532,126.216,262.682,127.067Zm-1.215-5.716a1.365,1.365,0,0,0-1.042-.448,1.389,1.389,0,0,0-1.063.448c-.319.347-.4.743-.4,2.361s.083,2.007.4,2.361a1.389,1.389,0,0,0,1.063.448,1.365,1.365,0,0,0,1.042-.448c.319-.347.413-.743.413-2.361s-.094-2-.413-2.358Zm5.372-.375v2.066h3.316v1.465h-3.316v3.413h-1.646v-8.407h5.556v1.462Zm6.966,0v2.066h3.316v1.465H273.8v3.413h-1.642v-8.407h5.531v1.462Zm5.323,6.941v-8.4h1.642v8.4Zm6.41.069a3.08,3.08,0,0,1-2.267-.92,2.431,2.431,0,0,1-.694-1.264,15.509,15.509,0,0,1,0-4.167,2.389,2.389,0,0,1,.694-1.264,3.08,3.08,0,0,1,2.267-.92,2.963,2.963,0,0,1,3.094,2.656h-1.663a1.385,1.385,0,0,0-1.417-1.191,1.3,1.3,0,0,0-1.042.438c-.347.365-.413.743-.413,2.372s.069,2.007.413,2.372a1.3,1.3,0,0,0,1.042.438,1.385,1.385,0,0,0,1.417-1.191h1.663A2.969,2.969,0,0,1,285.537,127.987Zm4.511-.069v-8.4h1.642v8.4Zm8.382,0-.5-1.486h-2.986l-.507,1.486h-1.712l3.059-8.4h1.288l3.07,8.407Zm-1.958-5.927-1.069,3.059h2.083Zm4.709,5.927v-8.4h1.642v6.945h3.82v1.465Zm12.785-3.163h-1.618v3.163H310.7v-8.4h3.257a2.624,2.624,0,1,1,0,5.24Zm-.083-3.778h-1.535v2.3h1.535a1.153,1.153,0,1,0,0-2.3Zm8.431,6.941-.5-1.486H318.83l-.51,1.486h-1.712l3.056-8.407h1.288l3.07,8.407Zm-1.958-5.927-1.063,3.059h2.083Zm9.174,5.927-1.642-3.354h-1.181v3.354h-1.642v-8.4h3.3a2.541,2.541,0,0,1,2.726,2.573,2.264,2.264,0,0,1-1.535,2.208l1.879,3.625Zm-1.274-6.945h-1.545v2.219h1.545a1.111,1.111,0,1,0,0-2.219Zm7.743,0v6.945h-1.639v-6.945h-2.195v-1.462H338.2v1.462Zm8.5,6.941-3.33-5.16v5.16h-1.642v-8.4h1.465l3.33,5.146v-5.146h1.642v8.4Zm3.424,0v-8.4h5.535v1.462h-3.886v1.972h3.316v1.465h-3.316v2.045h3.9v1.465Zm11.6,0-1.642-3.354H356.7v3.354h-1.642v-8.4h3.3a2.541,2.541,0,0,1,2.726,2.573,2.264,2.264,0,0,1-1.535,2.208l1.879,3.625Zm-1.274-6.945h-1.545v2.219h1.545a1.111,1.111,0,1,0,0-2.219Z" transform="translate(-167.955 -77.968)" fill="#fff"/></g></svg>