<svg xmlns="http://www.w3.org/2000/svg" width="100" height="140" viewBox="0 0 100 140"><g transform="translate(-136 -2294)"><g transform="translate(136 2301)" fill="#7abfbc"><path d="M 50 131.5 C 43.45187759399414 131.5 37.10042953491211 130.2178802490234 31.1220760345459 127.6892471313477 C 25.34690856933594 125.2465515136719 20.15996932983398 121.7493209838867 15.70532321929932 117.294677734375 C 11.25067710876465 112.8400497436523 7.753446102142334 107.6530914306641 5.31075382232666 101.8779373168945 C 2.78212308883667 95.89956665039063 1.5 89.54812622070313 1.5 83 L 1.5 27 L 98.5 27 L 98.5 83 C 98.5 89.54812622070313 97.21788024902344 95.89956665039063 94.68924713134766 101.8779373168945 C 92.24655151367188 107.6530914306641 88.74932098388672 112.8400497436523 84.294677734375 117.294677734375 C 79.84004974365234 121.7493209838867 74.65309143066406 125.2465515136719 68.87793731689453 127.6892471313477 C 62.89957046508789 130.2178802490234 56.54812240600586 131.5 50 131.5 Z" stroke="none"/><path d="M 3 28.5 L 3 83 C 3 89.34628295898438 4.24224853515625 95.50112915039063 6.692268371582031 101.2935943603516 C 9.059318542480469 106.8899688720703 12.44861602783203 111.9166488647461 16.76598358154297 116.234016418457 C 21.08335113525391 120.551383972168 26.11003112792969 123.9406661987305 31.70639801025391 126.307731628418 C 37.49885177612305 128.7577514648438 43.65371704101563 130 50 130 C 56.34628295898438 130 62.50113296508789 128.7577514648438 68.29360198974609 126.307731628418 C 73.88996887207031 123.9406661987305 78.91664886474609 120.551383972168 83.23401641845703 116.234016418457 C 87.55138397216797 111.9166488647461 90.94066619873047 106.8899688720703 93.30773162841797 101.2935943603516 C 95.75775146484375 95.50112915039063 97 89.34628295898438 97 83 L 97 28.5 L 3 28.5 M 0 25.5 L 100 25.5 L 100 83 C 100 110.6142349243164 77.61423492431641 133 50 133 C 22.38574981689453 133 0 110.6142349243164 0 83 L 0 25.5 Z" stroke="none" fill="#333a46"/></g><g transform="translate(136 2294)" fill="#fff" stroke="#333a46" stroke-width="3"><rect width="100" height="37" stroke="none"/><rect x="1.5" y="1.5" width="97" height="34" fill="none"/></g><text transform="translate(186 2367)" fill="#fff" font-size="19" font-family="Lato-Light, Lato" font-weight="300"><tspan letter-spacing="0.05em"><tspan x="-28.153" y="0">MOST</tspan></tspan><tspan x="-40.76" y="19">WANTED</tspan></text><text transform="translate(186.5 2406)" fill="#333a46" stroke="#333a46" stroke-width="2" font-size="18" font-family="Lato-Bold, Lato" font-weight="700" letter-spacing="0.05em"><tspan x="-32.634" y="0">THEME</tspan></text><text transform="translate(186 2314)" fill="#333a46" font-size="7" font-family="Lato-Bold, Lato" font-weight="700" letter-spacing="0.05em"><tspan x="-40.791" y="0">CONTAO-THEMES .NET</tspan></text><path d="M24.594,3.877a7.275,7.275,0,0,0-9.927.724l-1.048,1.08L12.571,4.6a7.275,7.275,0,0,0-9.927-.724,7.639,7.639,0,0,0-.527,11.06L12.411,25.567a1.668,1.668,0,0,0,2.41,0L25.116,14.938a7.634,7.634,0,0,0-.521-11.06Z" transform="translate(172.001 2321.419)" fill="#333a46"/></g></svg>