<svg id="Ebene_1" xmlns="http://www.w3.org/2000/svg" viewBox="0 0 603 171"><style>.st0{fill:#333a46}</style><path class="st0" d="M263.1 134.4l-2.4-.7L271.9 86l2.4.6-11.2 47.8zM313.5 129h-2.4l-.3-4.3c-1.5 2.8-3.9 4.9-7.6 4.9-5.9 0-9.5-5.6-9.5-14.5 0-8.6 3.7-14.7 9.9-14.7 3.4 0 5.6 1.8 7.1 3.8v-15l2.8.4V129zm-2.8-7.2v-14.6c-1.5-2.4-3.5-4.2-6.6-4.2-4.4 0-7.4 4.2-7.4 12.1 0 7.8 2.7 12 6.9 12 3.4-.1 5.4-2 7.1-5.3zM326 90.9c0 1.2-.8 2.3-2.1 2.3s-2.1-1-2.1-2.3c0-1.2.8-2.3 2.1-2.3s2.1 1 2.1 2.3zm-3.4 38.1v-28h2.8v28h-2.8zM353.2 101.6c-1.7.5-4 .8-7 .8 2.7 1.4 4.3 3.8 4.3 7.6 0 5.5-3.4 9.2-9.1 9.2-1.2 0-2.3-.2-3.3-.5-1.2.8-1.9 1.9-1.9 3.2 0 1.7 1 2.9 4 2.9h4.1c5 0 8.1 3 8.1 7.2 0 5-3.6 8-11 8-7.6 0-10.5-2.5-10.5-8h2.6c0 3.9 1.9 5.5 7.9 5.5 5.9 0 8.1-2 8.1-5.3 0-3-2.1-4.7-5.7-4.7h-4.1c-4.2 0-6.2-2.3-6.2-4.9 0-1.9 1-3.5 2.8-4.8-2.9-1.7-4.2-4.1-4.2-7.9 0-5.6 3.7-9.5 9.3-9.5 6.8.1 8.6-.7 11-1.8l.8 3zm-18.3 8.3c0 4.5 2.5 7.1 6.4 7.1 4.1 0 6.4-2.6 6.4-7s-2.1-7.1-6.4-7.1c-4.3-.1-6.4 2.8-6.4 7zM360.9 90.9c0 1.2-.8 2.3-2.1 2.3s-2.1-1-2.1-2.3c0-1.2.8-2.3 2.1-2.3s2.1 1 2.1 2.3zm-3.4 38.1v-28h2.8v28h-2.8zM380.8 127.8c-1.5 1.1-3.3 1.8-5.3 1.8-3.8 0-6.2-2.5-6.2-7.4v-18.7H365V101h4.2v-6.7l2.8-.4v7.1h6.5l-.3 2.5H372V122c0 3.3 1.2 4.9 3.7 4.9 1.4 0 2.6-.4 3.9-1.3l1.2 2.2zM400.2 122.8c0 3.1.8 4 2.1 4.6l-.6 2.2c-2.2-.5-3.5-1.7-3.9-4.7-1.8 3.2-4.5 4.7-7.9 4.7-4.9 0-7.8-3.4-7.8-8.4 0-5.9 4-9.1 10.5-9.1h4.8v-2.7c0-4.5-1.6-6.4-5.8-6.4-2 0-4.3.6-6.9 1.6l-.7-2.4c2.8-1.2 5.3-1.9 8-1.9 5.7 0 8.2 3.2 8.2 8.9v13.6zm-2.8-.7v-7.7H393c-5.1 0-7.9 2.2-7.9 6.7 0 3.9 2 6 5.3 6 3.2 0 5.4-1.8 7-5zM411.8 124.2c0 1.8.6 2.7 2.1 2.7.6 0 1.2-.1 1.7-.4l.8 2.3c-.9.4-1.9.8-3 .8-2.7 0-4.3-1.7-4.3-5.4V89.5l2.8-.4v35.1zM449.6 122.8c0 3.1.8 4 2.1 4.6l-.6 2.2c-2.2-.5-3.5-1.7-3.9-4.7-1.8 3.2-4.5 4.7-7.9 4.7-4.9 0-7.8-3.4-7.8-8.4 0-5.9 4-9.1 10.5-9.1h4.8v-2.7c0-4.5-1.6-6.4-5.8-6.4-2 0-4.3.6-6.9 1.6l-.7-2.4c2.8-1.2 5.3-1.9 8-1.9 5.7 0 8.2 3.2 8.2 8.9v13.6zm-2.8-.7v-7.7h-4.4c-5.1 0-7.9 2.2-7.9 6.7 0 3.9 2 6 5.3 6 3.2 0 5.4-1.8 7-5zM477.4 101.6c-1.7.5-4 .8-7 .8 2.7 1.4 4.3 3.8 4.3 7.6 0 5.5-3.4 9.2-9.1 9.2-1.2 0-2.3-.2-3.3-.5-1.2.8-1.9 1.9-1.9 3.2 0 1.7 1 2.9 4 2.9h4.1c5 0 8.1 3 8.1 7.2 0 5-3.6 8-11 8-7.6 0-10.5-2.5-10.5-8h2.6c0 3.9 1.9 5.5 7.9 5.5 5.9 0 8.1-2 8.1-5.3 0-3-2.1-4.7-5.7-4.7h-4.1c-4.2 0-6.2-2.3-6.2-4.9 0-1.9 1-3.5 2.7-4.8-2.9-1.7-4.2-4.1-4.2-7.9 0-5.6 3.7-9.5 9.3-9.5 6.8.1 8.6-.7 11-1.8l.9 3zm-18.3 8.3c0 4.5 2.5 7.1 6.4 7.1 4.1 0 6.4-2.6 6.4-7s-2.1-7.1-6.4-7.1c-4.3-.1-6.4 2.8-6.4 7zM498.8 116.2H482c.3 7.6 3.5 10.8 7.9 10.8 2.7 0 4.6-1 6.8-2.8l1.3 2c-2.4 2.1-4.9 3.4-8.3 3.4-6.7 0-10.7-5.4-10.7-14.4s3.9-14.9 10.1-14.9c6.6 0 9.8 5.3 9.8 13.6 0 .9-.1 1.8-.1 2.3zm-2.7-3.2c0-6.1-2.2-10-7-10-3.9 0-6.9 3.2-7.2 10.8h14.2v-.8zM523.9 108.9V129h-2.8v-19.6c0-4.6-1.7-6.5-4.8-6.5-3.4 0-5.7 2.4-7.8 5.8V129h-2.8v-28h2.4l.3 4.8c2-3.2 4.8-5.4 8.4-5.4 4.6 0 7.1 3.1 7.1 8.5zM544.2 127.8c-1.5 1.1-3.3 1.8-5.3 1.8-3.8 0-6.2-2.5-6.2-7.4v-18.7h-4.2V101h4.2v-6.7l2.8-.4v7.1h6.5l-.3 2.5h-6.2V122c0 3.3 1.2 4.9 3.7 4.9 1.4 0 2.6-.4 3.9-1.3l1.1 2.2zM563.2 129l-.1-5c-1.8 3.3-4.3 5.6-8.3 5.6-4.5 0-7.1-3.1-7.1-8.6v-20h2.8v19.7c0 4.5 1.7 6.3 5 6.3s5.6-2.4 7.4-5.7V101h2.8v28h-2.5zM587 100.7l-.5 2.9c-.7-.2-1.4-.3-2.2-.3-3.5 0-5.4 2.8-6.8 8.5V129h-2.8v-28h2.4l.2 6.3c1.4-4.6 3.6-6.9 7.1-6.9 1 0 1.9.1 2.6.3z"/><g><path class="st0" d="M46.7 151.5H18.9V49.7h22.8l1.7 5h.8c3.5-5.1 9.8-6.8 17-6.8C81.6 47.9 87 61.1 87 87.7c0 27.1-5.3 43-27.4 43-5.3 0-8.4-.8-12.2-3.6h-.7v24.4zm6.1-80.2c-2.5 0-4.5.8-6.4 2v34.2c2.5 1.2 4.5 1.5 6.6 1.5 6.1 0 6.3-6.6 6.3-19.3-.1-11.4-.5-18.4-6.5-18.4zM134.6 122.1h-.8c-3.3 5.1-8.8 8.4-16.7 8.4-20.7 0-26.9-15.4-26.9-42s9.3-40.8 26.3-40.8c6 0 10.1 1.2 13.6 4.1V22.9h27.6v81.7c0 4.1 1.5 5.3 6.1 5.3l-2.5 20c-3 .2-6.9.7-11.1.7-6.5-.1-13.3-1.7-15.6-8.5zm-10.4-13.4c2.2 0 4.1-.3 6.6-1.5V73c-2-1.2-4-2-6.5-2-5.9 0-6.4 7-6.4 18.4 0 12.7.1 19.3 6.3 19.3zM184.3 21.7c10.6 0 14.7 4.1 14.7 12.9 0 8.4-4.1 12.6-14.7 12.6-10.9 0-15-4-15-12.6 0-8.7 4.1-12.9 15-12.9zm-13.7 107.2V50.5h27.3v78.4h-27.3zM235.8 128.9h-27.4V49.7h24.1l1.6 4.8h.7c5.1-5.8 8.9-6.8 20.3-6.8l-1.2 26.5h-7.6c-8.6 0-10.6 1.8-10.6 10.3v44.4z"/></g></svg>