<svg xmlns="http://www.w3.org/2000/svg" width="145" height="145" viewBox="0 0 145 145"><g transform="translate(-74 -2318)"><g transform="translate(75 2318)"><circle cx="72.5" cy="72.5" r="72.5" transform="translate(-1)" fill="#fff"/><circle cx="67.853" cy="67.853" r="67.853" transform="translate(4.647 4.647)" fill="none" stroke="#f37920" stroke-width="5"/><g transform="translate(33.462 33.462)"><circle cx="39.038" cy="39.038" r="39.038" fill="#fff"/><path d="M36.715,0A36.715,36.715,0,1,1,0,36.715,36.715,36.715,0,0,1,36.715,0Z" transform="translate(2.324 2.324)" fill="none" stroke="#f37920" stroke-width="3"/></g><g transform="translate(17.453 17.106)"><g transform="translate(-2 -1)"><path d="M799.491,1059.179a.508.508,0,0,1-.019.192.279.279,0,0,1-.112.137.455.455,0,0,1-.276.054,4.291,4.291,0,0,0-.446.01,3.03,3.03,0,0,0-.585.106,2.331,2.331,0,0,0-.7.343,2.267,2.267,0,0,0-.553.52,1.6,1.6,0,0,0-.274.565,1.267,1.267,0,0,0-.01.567,1.459,1.459,0,0,0,.232.534,1.056,1.056,0,0,0,.527.426,1.662,1.662,0,0,0,.67.074,3.865,3.865,0,0,0,.772-.147c.271-.078.55-.158.835-.237s.573-.148.861-.2a2.9,2.9,0,0,1,.849-.033,2.076,2.076,0,0,1,.8.265,2.239,2.239,0,0,1,.714.7,3.148,3.148,0,0,1,.482,1.068,2.659,2.659,0,0,1,.028,1.119,2.854,2.854,0,0,1-.457,1.076,3.622,3.622,0,0,1-.965.942,4.046,4.046,0,0,1-1.552.668,3.884,3.884,0,0,1-1.558-.01l-.039-.7a.482.482,0,0,1,.036-.172.3.3,0,0,1,.11-.135.519.519,0,0,1,.341-.056,5.3,5.3,0,0,0,.547.016,3.37,3.37,0,0,0,.711-.1,2.518,2.518,0,0,0,.84-.4,2.415,2.415,0,0,0,.592-.557,1.722,1.722,0,0,0,.294-.627,1.515,1.515,0,0,0,0-.657,1.8,1.8,0,0,0-.289-.65,1.17,1.17,0,0,0-.553-.464,1.6,1.6,0,0,0-.675-.088,3.6,3.6,0,0,0-.766.151l-.826.252a8.268,8.268,0,0,1-.854.211,2.653,2.653,0,0,1-.849.028,2.083,2.083,0,0,1-.815-.291,2.5,2.5,0,0,1-.75-.75,2.493,2.493,0,0,1-.392-1.9,2.7,2.7,0,0,1,.419-.986,3.321,3.321,0,0,1,.9-.88,3.955,3.955,0,0,1,1.32-.606,3.287,3.287,0,0,1,1.339-.049Z" transform="translate(-772.061 -1049.606)" fill="#f37920"/><path d="M816.193,1056.689a.259.259,0,0,1,.207,0l.679.283a4,4,0,0,1-.827,1.53,4.744,4.744,0,0,1-1.636,1.17,4.641,4.641,0,0,1-1.812.457,4.032,4.032,0,0,1-1.687-.3,4.414,4.414,0,0,1-1.455-.993,5.644,5.644,0,0,1-1.108-1.624,5.316,5.316,0,0,1-.506-1.9,4.416,4.416,0,0,1,.235-1.781,4.294,4.294,0,0,1,.934-1.518,5.06,5.06,0,0,1,1.586-1.123,4.267,4.267,0,0,1,3.322-.232l-.128.7a.462.462,0,0,1-.049.142.289.289,0,0,1-.136.11.324.324,0,0,1-.189.019c-.074-.011-.164-.026-.269-.044s-.225-.035-.361-.049a2.788,2.788,0,0,0-.462,0,3.386,3.386,0,0,0-.574.1,3.937,3.937,0,0,0-.7.255,3.566,3.566,0,0,0-1.139.814,3.089,3.089,0,0,0-.665,1.119,3.359,3.359,0,0,0-.147,1.35,4.454,4.454,0,0,0,.419,1.5,4.535,4.535,0,0,0,.886,1.31,3.473,3.473,0,0,0,1.111.763,2.9,2.9,0,0,0,1.238.22,3.284,3.284,0,0,0,1.266-.314,5.191,5.191,0,0,0,.661-.361,3.092,3.092,0,0,0,.5-.4,2.563,2.563,0,0,0,.368-.464,4.055,4.055,0,0,0,.286-.554A.328.328,0,0,1,816.193,1056.689Z" transform="translate(-777.306 -1046.134)" fill="#f37920"/><path d="M832.9,1053.237l-1.239.3-.992-4.142-4.905,1.174.992,4.143-1.239.3-2.181-9.106,1.239-.3.973,4.06,4.9-1.174-.972-4.061,1.239-.3Z" transform="translate(-783.649 -1043.417)" fill="#f37920"/><path d="M843.988,1043.1a.671.671,0,0,1,.191.168l5.616,6.9c-.016-.113-.027-.222-.035-.329s-.013-.21-.015-.31l-.184-6.629,1.111-.031.259,9.36-.64.018a.551.551,0,0,1-.253-.046.639.639,0,0,1-.2-.171l-5.609-6.9c.011.109.021.215.028.32s.012.2.015.288l.184,6.668-1.11.031-.259-9.359.653-.018A.588.588,0,0,1,843.988,1043.1Z" transform="translate(-791.867 -1042.874)" fill="#f37920"/><path d="M867.529,1044.351l-.159,1.02-4.442-.693-.479,3.073,3.6.561-.153.982-3.6-.561-.493,3.157,4.441.693-.159,1.02-5.7-.889,1.443-9.251Z" transform="translate(-799.063 -1043.128)" fill="#f37920"/><path d="M874.656,1054.65l3.862,1.224-.322,1.015-5.07-1.608,2.829-8.925,1.208.383Z" transform="translate(-804.387 -1044.378)" fill="#f37920"/><path d="M885.54,1058.948l3.648,1.761-.463.959-4.79-2.312,4.071-8.432,1.141.552Z" transform="translate(-808.882 -1046.35)" fill="#f37920"/><path d="M905.728,1070.31a2.359,2.359,0,0,1,.764-.593,2.49,2.49,0,0,1,.9-.248,2.456,2.456,0,0,1,.923.1,2.321,2.321,0,0,1,.836.465,2.352,2.352,0,0,1,.593.763,2.452,2.452,0,0,1,.138,1.83,2.35,2.35,0,0,1-.472.844,2.327,2.327,0,0,1-.761.59,2.433,2.433,0,0,1-.9.241,2.51,2.51,0,0,1-.926-.11,2.358,2.358,0,0,1-.844-.472,2.317,2.317,0,0,1-.585-.758,2.443,2.443,0,0,1-.137-1.815A2.326,2.326,0,0,1,905.728,1070.31Z" transform="translate(-817.706 -1054.356)" fill="#f37920"/><path d="M920.828,1086.356l-3.261,2.153-.695-1.052,7.813-5.16,1.458,2.208a5.754,5.754,0,0,1,.7,1.38,2.925,2.925,0,0,1,.155,1.178,2.071,2.071,0,0,1-.34.972,2.736,2.736,0,0,1-.786.761,2.69,2.69,0,0,1-.861.381,2.441,2.441,0,0,1-.9.048,2.707,2.707,0,0,1-.887-.283,3.6,3.6,0,0,1-.84-.608,1.339,1.339,0,0,1-.1.569l-1.6,4.328-.619-.937a.554.554,0,0,1-.057-.573l1.452-3.872a.7.7,0,0,0,.055-.326.87.87,0,0,0-.159-.365Zm.769-.508.731,1.107a3.207,3.207,0,0,0,.649.741,1.983,1.983,0,0,0,.705.38,1.576,1.576,0,0,0,.724.035,1.905,1.905,0,0,0,.706-.294,1.493,1.493,0,0,0,.748-1.156,2.666,2.666,0,0,0-.551-1.606l-.764-1.156Z" transform="translate(-822.194 -1059.222)" fill="#f37920"/><path d="M935.223,1101.955l-.945.415-1.811-4.114-2.846,1.253,1.466,3.331-.909.4-1.466-3.33-2.924,1.287,1.811,4.114-.945.416-2.324-5.28,8.569-3.773Z" transform="translate(-825.414 -1065.201)" fill="#f37920"/><path d="M938.35,1116.227a.5.5,0,0,1-.174-.082.272.272,0,0,1-.091-.151.448.448,0,0,1,.041-.278,4.261,4.261,0,0,0,.141-.423,2.991,2.991,0,0,0,.1-.587,2.352,2.352,0,0,0-.09-.77,2.263,2.263,0,0,0-.3-.7,1.6,1.6,0,0,0-.44-.448,1.286,1.286,0,0,0-.531-.2,1.437,1.437,0,0,0-.581.04,1.053,1.053,0,0,0-.579.353,1.66,1.66,0,0,0-.295.606,3.873,3.873,0,0,0-.122.777q-.026.423-.057.867c-.02.3-.053.589-.1.878a2.887,2.887,0,0,1-.255.812,2.071,2.071,0,0,1-.519.665,2.247,2.247,0,0,1-.9.438,3.166,3.166,0,0,1-1.168.094,2.663,2.663,0,0,1-1.063-.349,2.852,2.852,0,0,1-.86-.792,3.625,3.625,0,0,1-.562-1.226,4.057,4.057,0,0,1-.107-1.686,3.887,3.887,0,0,1,.534-1.464l.674.2a.473.473,0,0,1,.15.092.3.3,0,0,1,.09.148.517.517,0,0,1-.061.341,4.938,4.938,0,0,0-.2.51,3.365,3.365,0,0,0-.148.7,2.536,2.536,0,0,0,.094.924,2.408,2.408,0,0,0,.327.745,1.709,1.709,0,0,0,.492.488,1.5,1.5,0,0,0,.618.224,1.78,1.78,0,0,0,.709-.053,1.173,1.173,0,0,0,.623-.365,1.606,1.606,0,0,0,.309-.606,3.542,3.542,0,0,0,.116-.771c.014-.281.027-.568.041-.863a8.127,8.127,0,0,1,.088-.875,2.645,2.645,0,0,1,.258-.809,2.1,2.1,0,0,1,.549-.67,2.685,2.685,0,0,1,1.935-.515,2.459,2.459,0,0,1,.939.328,2.7,2.7,0,0,1,.789.726,3.318,3.318,0,0,1,.527,1.141,3.974,3.974,0,0,1,.128,1.447,3.3,3.3,0,0,1-.4,1.277Z" transform="translate(-827.772 -1071.349)" fill="#f37920"/><path d="M935.7,1127.109l-3.484.356-.128-1.254,9.314-.954.281,2.749a5.146,5.146,0,0,1-.047,1.558,2.964,2.964,0,0,1-.471,1.142,2.355,2.355,0,0,1-.844.734,3.219,3.219,0,0,1-1.168.333,3.041,3.041,0,0,1-1.212-.106,2.568,2.568,0,0,1-1-.571,3.114,3.114,0,0,1-.719-1.027,4.684,4.684,0,0,1-.37-1.467Zm1-.1.153,1.5a2.941,2.941,0,0,0,.241.937,1.955,1.955,0,0,0,.47.651,1.664,1.664,0,0,0,.658.36,2.111,2.111,0,0,0,.8.062,1.8,1.8,0,0,0,1.334-.691,2.407,2.407,0,0,0,.331-1.712l-.153-1.494Z" transform="translate(-828.766 -1077.097)" fill="#f37920"/><path d="M936.831,1149.1a5.4,5.4,0,0,1-1.893-.5,4.43,4.43,0,0,1-1.423-1.072,4.207,4.207,0,0,1-.849-1.543,5.248,5.248,0,0,1,.336-3.751,4.218,4.218,0,0,1,1.11-1.364,4.439,4.439,0,0,1,1.591-.8,5.766,5.766,0,0,1,3.846.345,4.457,4.457,0,0,1,1.425,1.073,4.217,4.217,0,0,1,.856,1.539,5.2,5.2,0,0,1-.336,3.752,4.227,4.227,0,0,1-1.116,1.366,4.463,4.463,0,0,1-1.594.8A5.381,5.381,0,0,1,936.831,1149.1Zm.116-1.295a4.749,4.749,0,0,0,1.564-.1,3.277,3.277,0,0,0,1.215-.56,2.9,2.9,0,0,0,.819-.977,3.8,3.8,0,0,0,.244-2.727,2.925,2.925,0,0,0-.632-1.11,3.223,3.223,0,0,0-1.1-.77,5.193,5.193,0,0,0-3.082-.277,3.235,3.235,0,0,0-1.211.563,2.885,2.885,0,0,0-.816.98,3.853,3.853,0,0,0-.244,2.727,2.87,2.87,0,0,0,.629,1.106,3.288,3.288,0,0,0,1.093.767A4.743,4.743,0,0,0,936.947,1147.806Z" transform="translate(-828.927 -1083.129)" fill="#f37920"/><path d="M938.225,1161.381a.664.664,0,0,1-.221.126l-8.356,3.063c.111.022.219.046.323.074s.2.057.3.087l6.328,1.984-.332,1.06-8.934-2.8.192-.611a.539.539,0,0,1,.125-.224.625.625,0,0,1,.228-.138l8.347-3.059c-.106-.024-.21-.05-.311-.077s-.193-.054-.277-.08l-6.365-2,.332-1.06,8.934,2.8-.2.623A.575.575,0,0,1,938.225,1161.381Z" transform="translate(-826.71 -1090.519)" fill="#f37920"/><path d="M929.379,1181.437a.5.5,0,0,1-.073-.178.276.276,0,0,1,.035-.173.454.454,0,0,1,.218-.177,4,4,0,0,0,.39-.216,3.072,3.072,0,0,0,.469-.367,2.335,2.335,0,0,0,.454-.628,2.269,2.269,0,0,0,.247-.719,1.592,1.592,0,0,0-.022-.627,1.278,1.278,0,0,0-.255-.506,1.45,1.45,0,0,0-.455-.364,1.053,1.053,0,0,0-.665-.13,1.649,1.649,0,0,0-.627.247,3.87,3.87,0,0,0-.614.49l-.628.6q-.323.306-.669.579a2.915,2.915,0,0,1-.735.427,2.061,2.061,0,0,1-.833.139,2.224,2.224,0,0,1-.958-.283,3.179,3.179,0,0,1-.925-.719,2.681,2.681,0,0,1-.548-.977,2.859,2.859,0,0,1-.1-1.165,3.648,3.648,0,0,1,.414-1.285,4.056,4.056,0,0,1,1.06-1.313,3.863,3.863,0,0,1,1.383-.719l.363.6a.474.474,0,0,1,.047.168.292.292,0,0,1-.034.17.515.515,0,0,1-.276.21,5.382,5.382,0,0,0-.491.241,3.348,3.348,0,0,0-.583.418,2.527,2.527,0,0,0-.556.745,2.4,2.4,0,0,0-.262.77,1.7,1.7,0,0,0,.032.691,1.528,1.528,0,0,0,.3.583,1.813,1.813,0,0,0,.56.44,1.172,1.172,0,0,0,.706.152,1.6,1.6,0,0,0,.637-.238,3.566,3.566,0,0,0,.607-.49l.613-.609a8.275,8.275,0,0,1,.657-.585,2.7,2.7,0,0,1,.738-.422,2.11,2.11,0,0,1,.856-.123,2.567,2.567,0,0,1,2.245,1.805,2.713,2.713,0,0,1,.09,1.069,3.338,3.338,0,0,1-.383,1.2,3.981,3.981,0,0,1-.883,1.152,3.311,3.311,0,0,1-1.161.669Z" transform="translate(-824.87 -1097.04)" fill="#f37920"/><path d="M918.437,1185.409l.714-1.048,7.737,5.274-.714,1.046Z" transform="translate(-822.87 -1101.653)" fill="#f37920"/><path d="M921.873,1196.615l-.679.752a.424.424,0,0,1-.247.147.53.53,0,0,1-.265-.028l-6.676-2.462a4.707,4.707,0,0,1-.47-.2q-.245-.119-.5-.255.169.232.317.458a3.908,3.908,0,0,1,.252.443l3.139,6.38a.55.55,0,0,1,.048.255.411.411,0,0,1-.114.266l-.683.757-4.393-9.106.766-.849Z" transform="translate(-819.917 -1104.774)" fill="#f37920"/><path d="M903.516,1211.488l-.636-.813,3.541-2.769-1.916-2.449-2.867,2.242-.612-.782,2.866-2.242-1.968-2.517-3.541,2.77-.636-.814,4.544-3.554,5.768,7.375Z" transform="translate(-814.505 -1107.964)" fill="#f37920"/><path d="M886.412,1217.9a2.348,2.348,0,0,1,.186.949,2.515,2.515,0,0,1-.182.914,2.445,2.445,0,0,1-.509.777,2.306,2.306,0,0,1-.791.538,2.358,2.358,0,0,1-.949.186,2.46,2.46,0,0,1-1.7-.7,2.362,2.362,0,0,1-.541-.8,2.337,2.337,0,0,1-.185-.945,2.463,2.463,0,0,1,.188-.91,2.519,2.519,0,0,1,.515-.777,2.363,2.363,0,0,1,.8-.542,2.321,2.321,0,0,1,.939-.182,2.449,2.449,0,0,1,1.683.695A2.333,2.333,0,0,1,886.412,1217.9Z" transform="translate(-807.979 -1114.809)" fill="#f37920"/><path d="M864.212,1228.8l-1.007.109a.419.419,0,0,1-.282-.054.526.526,0,0,1-.18-.2l-3.35-6.278a4.835,4.835,0,0,1-.218-.463q-.1-.251-.206-.523-.027.286-.068.553a3.675,3.675,0,0,1-.106.5l-1.9,6.853a.545.545,0,0,1-.133.222.411.411,0,0,1-.263.124l-1.013.111,2.774-9.723,1.137-.125Z" transform="translate(-797.004 -1116.318)" fill="#f37920"/><path d="M840.9,1229.342l.065-1.029,4.486.281.194-3.1-3.633-.227.063-.991,3.632.227.2-3.188-4.487-.28.065-1.031,5.758.361-.585,9.344Z" transform="translate(-790.983 -1116.358)" fill="#f37920"/><path d="M831.13,1221.847l.9-3.8,1.227.29-2.148,9.113-2.575-.607a5.832,5.832,0,0,1-1.453-.527,2.942,2.942,0,0,1-.92-.751,2.08,2.08,0,0,1-.419-.941,2.741,2.741,0,0,1,.049-1.093,2.687,2.687,0,0,1,.365-.867,2.432,2.432,0,0,1,.62-.649,2.693,2.693,0,0,1,.84-.4,3.551,3.551,0,0,1,1.028-.134,1.338,1.338,0,0,1-.316-.484l-1.8-4.245,1.094.257a.554.554,0,0,1,.435.378l1.6,3.813a.715.715,0,0,0,.184.276.876.876,0,0,0,.365.156Zm-.211.9-1.291-.3a3.211,3.211,0,0,0-.981-.094,1.977,1.977,0,0,0-.774.207,1.568,1.568,0,0,0-.551.47,1.915,1.915,0,0,0-.312.7,1.493,1.493,0,0,0,.247,1.354,2.671,2.671,0,0,0,1.5.791l1.348.318Z" transform="translate(-784.655 -1114.954)" fill="#f37920"/><path d="M814.025,1217.972l-.437-.192a1.042,1.042,0,0,0-.387-.1.786.786,0,0,0-.339.082l-4.275,1.972a1,1,0,0,1-.348.1.769.769,0,0,1-.342-.076l-.986-.435,4.891-2.25a3.143,3.143,0,0,1,.339-.129,1.164,1.164,0,0,1,.3-.052.91.91,0,0,1-.222-.29,2.631,2.631,0,0,1-.144-.385l-1.619-5.561,1,.443a.966.966,0,0,1,.183.1.6.6,0,0,1,.113.107.444.444,0,0,1,.07.125c.018.045.035.094.051.143l1.46,4.707c.023.067.046.126.069.177a.607.607,0,0,0,.094.144.683.683,0,0,0,.151.128,1.912,1.912,0,0,0,.235.121l.527.232,1.728-3.922,1.153.509-3.775,8.568-1.154-.508Z" transform="translate(-776.827 -1112.323)" fill="#f37920"/><path d="M798.85,1201.972l.807.555a.426.426,0,0,1,.178.226.516.516,0,0,1,.007.267l-.56,2.358,3.461,2.382,2-1.365a.51.51,0,0,1,.248-.084.419.419,0,0,1,.278.081l.807.556-8.393,5.59-1.06-.729Zm3.083,6.341-2.88-1.981-.948,3.971a7.017,7.017,0,0,1-.268.886q.211-.18.395-.327t.335-.249Z" transform="translate(-772.568 -1108.574)" fill="#f37920"/><path d="M787.643,1196.5a2.619,2.619,0,0,0-.872-.6,2.178,2.178,0,0,0-.935-.163,2.407,2.407,0,0,0-.939.251,3.333,3.333,0,0,0-.882.643l-4.037,4.011-.889-.894,4.036-4.012a4.274,4.274,0,0,1,1.248-.877,3.51,3.51,0,0,1,1.371-.322,3.363,3.363,0,0,1,1.39.273,4.345,4.345,0,0,1,2.193,2.2,3.414,3.414,0,0,1,.266,1.394,3.465,3.465,0,0,1-.327,1.372,4.27,4.27,0,0,1-.884,1.242l-4.036,4.012-.89-.895,4.032-4.007a3.358,3.358,0,0,0,.648-.879,2.4,2.4,0,0,0,.257-.937,2.215,2.215,0,0,0-.157-.941A2.6,2.6,0,0,0,787.643,1196.5Z" transform="translate(-765.691 -1105.364)" fill="#f37920"/><path d="M769.46,1188.532l.849-.588,2.555,3.7,2.693-1.861-2.183-3.161.849-.587,2.184,3.161,3.311-2.289.724,1.049-7.7,5.323Z" transform="translate(-761.532 -1102.328)" fill="#f37920"/><path d="M765.043,1175.1a.5.5,0,0,1,.186.048.275.275,0,0,1,.119.131.46.46,0,0,1,.013.281,4,4,0,0,0-.057.443,3.031,3.031,0,0,0,.016.595,2.325,2.325,0,0,0,.236.738,2.264,2.264,0,0,0,.432.626,1.593,1.593,0,0,0,.518.354,1.262,1.262,0,0,0,.559.095,1.462,1.462,0,0,0,.562-.151,1.054,1.054,0,0,0,.5-.457,1.653,1.653,0,0,0,.174-.652,3.879,3.879,0,0,0-.03-.785q-.055-.42-.111-.861t-.069-.883a2.861,2.861,0,0,1,.093-.844,2.07,2.07,0,0,1,.382-.753,2.238,2.238,0,0,1,.8-.6,3.185,3.185,0,0,1,1.128-.317,2.654,2.654,0,0,1,1.111.139,2.84,2.84,0,0,1,1,.612,3.614,3.614,0,0,1,.787,1.095,4.052,4.052,0,0,1,.429,1.633,3.882,3.882,0,0,1-.243,1.539l-.7-.066a.48.48,0,0,1-.165-.061.307.307,0,0,1-.117-.129.522.522,0,0,1-.005-.346,5.154,5.154,0,0,0,.1-.538,3.34,3.34,0,0,0,.011-.717,2.551,2.551,0,0,0-.27-.89,2.407,2.407,0,0,0-.464-.667,1.688,1.688,0,0,0-.576-.385,1.512,1.512,0,0,0-.649-.1,1.8,1.8,0,0,0-.686.188,1.174,1.174,0,0,0-.541.478,1.592,1.592,0,0,0-.186.654,3.534,3.534,0,0,0,.034.779q.061.418.126.855a8.31,8.31,0,0,1,.081.876,2.69,2.69,0,0,1-.1.844,2.11,2.11,0,0,1-.41.762,2.69,2.69,0,0,1-1.8.877,2.454,2.454,0,0,1-.984-.142,2.685,2.685,0,0,1-.914-.562,3.3,3.3,0,0,1-.736-1.019,3.959,3.959,0,0,1-.4-1.395,3.288,3.288,0,0,1,.151-1.331Z" transform="translate(-759.262 -1096.533)" fill="#f37920"/><path d="M760.381,1162.654a.5.5,0,0,1,.178.074.274.274,0,0,1,.1.147.456.456,0,0,1-.028.28,4.193,4.193,0,0,0-.122.428,3.072,3.072,0,0,0-.07.591,2.318,2.318,0,0,0,.126.766,2.23,2.23,0,0,0,.335.682,1.575,1.575,0,0,0,.46.427,1.267,1.267,0,0,0,.539.176,1.48,1.48,0,0,0,.579-.065,1.064,1.064,0,0,0,.562-.38,1.664,1.664,0,0,0,.267-.619,3.9,3.9,0,0,0,.086-.781q.007-.424.017-.868t.06-.883a2.9,2.9,0,0,1,.217-.822,2.065,2.065,0,0,1,.488-.689,2.246,2.246,0,0,1,.877-.479,3.171,3.171,0,0,1,1.162-.148,2.679,2.679,0,0,1,1.078.3,2.864,2.864,0,0,1,.9.752,3.629,3.629,0,0,1,.618,1.2,4.07,4.07,0,0,1,.184,1.679,3.878,3.878,0,0,1-.467,1.487l-.683-.168a.487.487,0,0,1-.153-.084.3.3,0,0,1-.1-.144.518.518,0,0,1,.045-.343,5.119,5.119,0,0,0,.176-.518,3.409,3.409,0,0,0,.115-.708,2.523,2.523,0,0,0-.136-.92,2.415,2.415,0,0,0-.36-.729,1.7,1.7,0,0,0-.514-.465,1.507,1.507,0,0,0-.627-.2,1.791,1.791,0,0,0-.706.086,1.176,1.176,0,0,0-.606.393,1.613,1.613,0,0,0-.281.619,3.548,3.548,0,0,0-.081.776q0,.422,0,.864a8.411,8.411,0,0,1-.048.879,2.674,2.674,0,0,1-.221.819,2.085,2.085,0,0,1-.517.694,2.691,2.691,0,0,1-1.91.6,2.483,2.483,0,0,1-.953-.285,2.712,2.712,0,0,1-.821-.69,3.325,3.325,0,0,1-.578-1.115,3.957,3.957,0,0,1-.194-1.439,3.3,3.3,0,0,1,.344-1.3Z" transform="translate(-757.172 -1091.724)" fill="#f37920"/><path d="M755.655,1148.146l1.053-.16.454,2.991,8.2-1.243.19,1.253-8.2,1.244.455,3-1.053.16Z" transform="translate(-755.57 -1086.524)" fill="#f37920"/><path d="M764.949,1131.87l-.015.981a.42.42,0,0,1-.09.273.519.519,0,0,1-.218.153l-2.274.839-.068,4.2,2.246.912a.524.524,0,0,1,.206.161.416.416,0,0,1,.087.276l-.016.98-9.3-3.9.021-1.287Zm-3.575,6.078.057-3.5-3.833,1.408a7.13,7.13,0,0,1-.886.266c.177.051.341.1.491.148s.28.1.393.141Z" transform="translate(-755.506 -1079.811)" fill="#f37920"/><path d="M761.847,1122.529l3.839.727-.234,1.239-9.2-1.741.491-2.6a5.784,5.784,0,0,1,.462-1.475,2.909,2.909,0,0,1,.709-.953,2.073,2.073,0,0,1,.922-.46,2.736,2.736,0,0,1,1.094,0,2.678,2.678,0,0,1,.882.327,2.426,2.426,0,0,1,.677.59,2.7,2.7,0,0,1,.44.821,3.581,3.581,0,0,1,.18,1.021,1.343,1.343,0,0,1,.469-.337l4.161-1.993-.209,1.1a.554.554,0,0,1-.358.451l-3.738,1.766a.716.716,0,0,0-.267.2.876.876,0,0,0-.14.372Zm-.906-.171.247-1.3a3.207,3.207,0,0,0,.05-.985,1.994,1.994,0,0,0-.241-.764,1.578,1.578,0,0,0-.5-.529,1.919,1.919,0,0,0-.712-.281,1.492,1.492,0,0,0-1.341.308,2.662,2.662,0,0,0-.722,1.536l-.258,1.36Z" transform="translate(-755.828 -1073.745)" fill="#f37920"/><path d="M764.331,1105.3l.173-.444a1.046,1.046,0,0,0,.085-.391.762.762,0,0,0-.1-.335l-2.16-4.183a.993.993,0,0,1-.115-.343.747.747,0,0,1,.06-.344l.39-1.006,2.466,4.786a3.009,3.009,0,0,1,.144.333,1.147,1.147,0,0,1,.065.3.916.916,0,0,1,.28-.235,2.627,2.627,0,0,1,.378-.161l5.485-1.865-.4,1.023a.981.981,0,0,1-.094.188.607.607,0,0,1-.1.118.474.474,0,0,1-.12.076c-.045.02-.093.039-.141.057l-4.637,1.667q-.1.039-.174.077a.644.644,0,0,0-.14.1.689.689,0,0,0-.12.156,1.918,1.918,0,0,0-.111.241l-.208.536,4,1.553-.457,1.175-8.727-3.391.457-1.175Z" transform="translate(-757.468 -1065.845)" fill="#f37920"/><path d="M779.818,1086.986a2.35,2.35,0,0,1-.635-.729,2.51,2.51,0,0,1-.3-.883,2.456,2.456,0,0,1,.053-.928,2.306,2.306,0,0,1,.418-.861,2.366,2.366,0,0,1,.729-.635,2.451,2.451,0,0,1,1.818-.239,2.415,2.415,0,0,1,1.5,1.151,2.44,2.44,0,0,1,.291.882,2.493,2.493,0,0,1-.059.929,2.358,2.358,0,0,1-.423.87,2.315,2.315,0,0,1-.724.626,2.441,2.441,0,0,1-1.8.239A2.331,2.331,0,0,1,779.818,1086.986Z" transform="translate(-765.592 -1059.401)" fill="#f37920"/></g></g></g><path d="M2.23,25.051q.266-2.081.4-5.068t.133-7.332q0-1.681-.042-3.287T2.6,6.275L0,6.342Q.466,4.827.816,3.753T1.548,1.6a10.674,10.674,0,0,0,2.164-.483A2.709,2.709,0,0,0,4.844.383h.25A5.167,5.167,0,0,0,5.984.3Q6.458.216,6.991.083q-.117,1.964-.175,4.428t-.058,5.543q0,3.645.075,7.3t.225,7.365ZM15.38,7.024q-.849,0-1.29,1.665a20.306,20.306,0,0,0-.441,4.877,18.87,18.87,0,0,0,.341,4.3q.341,1.29,1.124,1.29.816,0,1.307-1.748a18.144,18.144,0,0,0,.491-4.727,18.487,18.487,0,0,0-.358-4.328Q16.2,7.024,15.38,7.024Zm-.366,17.927q-2.6,0-4.061-3.088a20.477,20.477,0,0,1-1.465-8.6A22.657,22.657,0,0,1,11.152,3.72Q12.817.2,15.6.2,18.06.2,19.55,3.587a23.285,23.285,0,0,1,1.49,9.2,19.877,19.877,0,0,1-1.665,8.847Q17.71,24.951,15.014,24.951ZM28.4,7.024q-.849,0-1.29,1.665a20.306,20.306,0,0,0-.441,4.877,18.869,18.869,0,0,0,.341,4.3q.341,1.29,1.124,1.29.816,0,1.307-1.748a18.144,18.144,0,0,0,.491-4.727,18.487,18.487,0,0,0-.358-4.328Q29.212,7.024,28.4,7.024ZM28.03,24.951q-2.6,0-4.061-3.088a20.477,20.477,0,0,1-1.465-8.6A22.657,22.657,0,0,1,24.169,3.72Q25.833.2,28.613.2q2.463,0,3.953,3.387a23.286,23.286,0,0,1,1.49,9.2,19.877,19.877,0,0,1-1.665,8.847Q30.727,24.951,28.03,24.951Zm21.505-9.4q-.466,0-.716.724a6.8,6.8,0,0,0-.25,2.106,6.985,6.985,0,0,0,.241,2.131q.241.7.724.7.516,0,.782-.724a6.4,6.4,0,0,0,.266-2.106A6.088,6.088,0,0,0,50.3,16.3Q50.019,15.547,49.536,15.547ZM46.024,18.21a9.979,9.979,0,0,1,1.149-5.019q1.149-2.006,2.73-2.006,1.431,0,2.372,1.972a11.855,11.855,0,0,1,.94,5.085A10.573,10.573,0,0,1,52.2,23.195a2.7,2.7,0,0,1-5.168.017A10.71,10.71,0,0,1,46.024,18.21ZM38.866,4.394q-.483,0-.724.707A6.851,6.851,0,0,0,37.9,7.191a6.986,6.986,0,0,0,.241,2.131q.241.7.724.7.516,0,.766-.7a6.624,6.624,0,0,0,.25-2.1,6.428,6.428,0,0,0-.266-2.089Q39.349,4.394,38.866,4.394ZM35.354,7.058a10.124,10.124,0,0,1,1.14-5.043Q37.635,0,39.2,0q1.431,0,2.389,1.981a11.687,11.687,0,0,1,.957,5.077,10.74,10.74,0,0,1-1.015,4.969Q40.514,13.982,39,13.982a2.99,2.99,0,0,1-2.638-1.9A10.743,10.743,0,0,1,35.354,7.058Zm4.694,19.358q1.182-7.041,2.788-13.641T46.49,0L49.7.549a105.3,105.3,0,0,0-3.987,11.477q-1.806,6.267-3.2,13.441Z" transform="translate(131.243 2367.031) rotate(30)" fill="#f37920"/></g></svg>